<svg width="185" height="31" viewBox="0 0 185 31" xmlns="http://www.w3.org/2000/svg"><title>javascript.info logo</title><g fill="#FFF" fill-rule="evenodd"><path d="M40.487 23.932l.714 1.446 5.393-2.662-.713-1.446z"/><path d="M41.67 20.1l3.746 1.85.714-1.446-3.746-1.85zM40.126 25.489l7.486 2.182.451-1.547-7.486-2.183zM43.968 8.694a3.13 3.13 0 1 0 0 6.26 3.13 3.13 0 0 0 0-6.26zm0 4.113a.983.983 0 1 1-.001-1.965.983.983 0 0 1 0 1.965z"/><path d="M45.869 14.393c-.19-.593-.863-1.073-1.499-1.073h-.743c-.637 0-1.307.483-1.497 1.073l-4.68 14.625c-.19.594.168 1.074.814 1.074h.923a.808.808 0 0 0 .737-.545l2.394-8.186c.574-1.946.965-3.585 1.59-5.506h.105c.598 1.92.99 3.56 1.563 5.506l2.42 8.186a.807.807 0 0 0 .733.545h1.035c.638 0 1-.483.809-1.074l-4.704-14.625z"/><g><path d="M1.837 24.929c.793.98 1.69 1.502 2.586 1.502 1.398 0 2.107-.605 2.107-2.482v-6.155H1.21v-2.566h8.387v8.97c0 2.67-1.315 4.882-5.069 4.882-1.502 0-3.275-.585-4.464-2.254l1.773-1.897zM19.614 25.596h-4.11l-.834 3.233h-3.13l4.235-13.601h3.671l4.236 13.601h-3.255l-.813-3.233zm-.627-2.399l-.313-1.251c-.355-1.356-.73-2.963-1.085-4.382h-.083c-.334 1.44-.71 3.026-1.064 4.382l-.314 1.251h2.86zM24.186 15.228h3.254l1.628 6.342c.418 1.482.688 2.858 1.084 4.361h.084c.417-1.502.708-2.88 1.105-4.36l1.606-6.343h3.129l-4.088 13.601h-3.693l-4.11-13.601z"/><g><path d="M54.727 25.013c1.023.834 2.294 1.418 3.484 1.418 1.42 0 2.045-.5 2.045-1.314 0-.855-.793-1.127-2.107-1.627l-1.753-.751c-1.523-.564-2.9-1.732-2.9-3.714 0-2.252 2.044-4.046 4.986-4.046 1.648 0 3.296.626 4.527 1.794l-1.564 1.94c-.94-.689-1.794-1.086-2.962-1.086-1.19 0-1.879.46-1.879 1.23 0 .835.919 1.128 2.232 1.607l1.649.71c1.794.668 2.92 1.773 2.92 3.693 0 2.253-1.898 4.214-5.278 4.214a7.854 7.854 0 0 1-5.173-1.96l1.773-2.108zM72.066 14.978c1.732 0 3.11.834 4.028 1.731l-1.69 1.9c-.646-.585-1.356-.982-2.336-.982-1.92 0-3.339 1.648-3.339 4.38 0 2.797 1.42 4.424 3.463 4.424.98 0 1.753-.48 2.42-1.21l1.69 1.857c-1.126 1.313-2.587 2.002-4.297 2.002-3.505 0-6.426-2.399-6.426-6.968 0-4.505 2.857-7.134 6.487-7.134zM85.692 28.83l-2.608-4.902H81.48v4.902h-3.067V15.228h4.819c2.878 0 5.257 1.001 5.257 4.235 0 2.002-.98 3.276-2.42 3.922l3.067 5.444h-3.443zm-4.214-7.343h1.502c1.628 0 2.483-.688 2.483-2.023 0-1.335-.856-1.793-2.483-1.793h-1.502v3.816zM91.015 26.242h3.17v-8.427h-3.17v-2.587h9.43v2.587h-3.172v8.427h3.171v2.588h-9.429zM103.535 15.228h4.964c2.941 0 5.32 1.085 5.32 4.38 0 3.194-2.44 4.612-5.32 4.612H106.6v4.61h-3.066V15.228zm4.776 6.55c1.69 0 2.482-.75 2.482-2.169 0-1.418-.855-1.939-2.482-1.939h-1.71v4.11l1.71-.001zM119.224 17.815h-4.067v-2.587h11.222v2.587h-4.067v11.014h-3.088V17.815z"/></g><g><path d="M131.135 25.248c1.107 0 1.863.836 1.863 1.895 0 1.06-.755 1.88-1.863 1.88-1.109 0-1.863-.82-1.863-1.88s.754-1.895 1.863-1.895zM137.41 28.834h9.26v-2.54h-3.114v-8.278h3.115v-2.54h-9.261v2.54h3.114v8.278h-3.114zM149.949 28.834h2.889v-4.733c0-1.577-.287-3.36-.43-4.835h.081l1.148 2.91 2.827 6.658h3.073V15.476h-2.889v4.733c0 1.557.287 3.442.43 4.855h-.081l-1.148-2.93-2.827-6.658h-3.073v13.358zM163.512 28.834h3.012v-5.183h4.937v-2.54h-4.937v-3.095h5.798v-2.54h-8.81zM184.516 22.094c0-4.344-2.192-6.864-5.368-6.864-3.175 0-5.368 2.5-5.368 6.864s2.193 6.986 5.368 6.986c3.176 0 5.368-2.622 5.368-6.986zm-7.642 0c0-2.664.881-4.262 2.274-4.262 1.394 0 2.275 1.598 2.275 4.262 0 2.683-.881 4.384-2.275 4.384-1.393 0-2.274-1.7-2.274-4.384z"/></g></g><g><path d="M50.502 10.994l-.545-.39 2.488-.962-.422-.596 5.555-.482.043.13-2.263.89.263.486-2.997.735.46.578-4.145.561-.057-.114 1.62-.836M50.297 5.088l.456.367-3.898 2.74-.091-.094 1.39-1.895-.725.043 1.547-1.778-.4-.487L53.359.367l.092.094-1.859 2.553.586-.002-1.88 2.076M37.713 5.088l-.456.367 3.898 2.74.09-.094-1.39-1.895.726.043-1.547-1.778.399-.487L34.651.367 34.56.46l1.859 2.553-.586-.002 1.88 2.076M37.509 10.994l.545-.39-2.488-.962.422-.596-5.555-.482-.043.13 2.263.89-.263.486 2.997.735-.46.578 4.145.561.057-.114-1.62-.836"/></g></g></svg>